<svg width="76" height="44" viewBox="0 0 76 44" fill="none" xmlns="http://www.w3.org/2000/svg">
<path d="M55.517 19.6482C56.1755 19.7116 56.8287 19.7653 57.4926 19.8141C57.5365 20.7262 57.6048 21.6433 57.5462 22.5603C57.395 23.5359 56.1853 23.5067 55.5068 23.9018C55.5024 22.4823 55.4926 21.0677 55.517 19.6482Z" fill="#af2323" fill-opacity="0.15"/>
<path d="M36.7116 20.8423H38.2867V25.6803C38.2867 26.2236 38.157 26.6989 37.8975 27.1063C37.6405 27.5137 37.2803 27.8314 36.8171 28.0594C36.3539 28.2849 35.8144 28.3977 35.1984 28.3977C34.58 28.3977 34.0392 28.2849 33.576 28.0594C33.1128 27.8314 32.7527 27.5137 32.4956 27.1063C32.2386 26.6989 32.11 26.2236 32.11 25.6803V20.8423H33.6851V25.5458C33.6851 25.8295 33.747 26.0817 33.8706 26.3024C33.9968 26.5231 34.1738 26.6965 34.4017 26.8226C34.6297 26.9487 34.8952 27.0117 35.1984 27.0117C35.5039 27.0117 35.7695 26.9487 35.995 26.8226C36.223 26.6965 36.3988 26.5231 36.5225 26.3024C36.6486 26.0817 36.7116 25.8295 36.7116 25.5458V20.8423ZM39.2989 22.1409V20.8423H45.4174V22.1409H43.1366V28.2922H41.5797V22.1409H39.2989ZM51.0267 20.8423H52.6018V25.6803C52.6018 26.2236 52.4721 26.6989 52.2126 27.1063C51.9555 27.5137 51.5954 27.8314 51.1322 28.0594C50.669 28.2849 50.1294 28.3977 49.5134 28.3977C48.895 28.3977 48.3542 28.2849 47.891 28.0594C47.4278 27.8314 47.0677 27.5137 46.8107 27.1063C46.5536 26.6989 46.4251 26.2236 46.4251 25.6803V20.8423H48.0002V25.5458C48.0002 25.8295 48.062 26.0817 48.1857 26.3024C48.3118 26.5231 48.4888 26.6965 48.7168 26.8226C48.9447 26.9487 49.2103 27.0117 49.5134 27.0117C49.819 27.0117 50.0845 26.9487 50.3101 26.8226C50.538 26.6965 50.7139 26.5231 50.8375 26.3024C50.9636 26.0817 51.0267 25.8295 51.0267 25.5458V20.8423ZM53.8977 28.2922V20.8423H56.8369C57.3995 20.8423 57.8797 20.9429 58.2774 21.1442C58.6776 21.3431 58.9819 21.6256 59.1905 21.9918C59.4015 22.3555 59.507 22.7836 59.507 23.2759C59.507 23.7706 59.4003 24.1962 59.1868 24.5527C58.9734 24.9067 58.6642 25.1784 58.2592 25.3675C57.8567 25.5567 57.3692 25.6512 56.7969 25.6512H54.8289V24.3853H56.5423C56.843 24.3853 57.0928 24.3441 57.2916 24.2617C57.4905 24.1792 57.6384 24.0555 57.7354 23.8906C57.8349 23.7257 57.8846 23.5208 57.8846 23.2759C57.8846 23.0285 57.8349 22.8199 57.7354 22.6502C57.6384 22.4804 57.4893 22.3519 57.288 22.2646C57.0891 22.1749 56.8381 22.13 56.535 22.13H55.4728V28.2922H53.8977ZM57.9209 24.9019L59.7725 28.2922H58.0337L56.2222 24.9019H57.9209ZM60.6201 28.2922V20.8423H65.64V22.1409H62.1952V23.9161H65.3818V25.2147H62.1952V26.9935H65.6546V28.2922H60.6201Z" fill="#af2323"/>
<path d="M75.7899 21.0976C75.1836 16.9524 73.2017 13.0217 70.2242 10.075C69.9476 10.3613 69.6628 10.6403 69.3813 10.9218C68.1896 12.1149 66.997 13.3086 65.8029 14.5002C65.7004 14.6085 65.577 14.7017 65.5024 14.8334C67.114 16.4524 68.2974 18.4977 68.8706 20.7098C69.0589 21.4337 70.074 25.5502 67.9072 29.8657C67.058 31.5563 65.2658 33.4246 65.2658 33.4246L70.2788 37.9044C70.3754 37.8074 70.5179 37.662 70.6861 37.482C73.7563 34.1992 74.9055 30.6129 75.2187 29.5408C75.665 28.0135 76.3489 24.9204 75.7899 21.0976Z" fill="#af2323"/>
<path d="M12.8365 12.7694C14.5521 11.6821 16.5354 11.0216 18.5583 10.847C21.3202 10.5958 24.1611 11.2567 26.5147 12.7289C26.6073 12.785 26.6961 12.8523 26.8024 12.884C28.0795 11.5582 29.3668 10.2436 30.6399 8.91387C30.9633 8.59534 31.2691 8.25974 31.596 7.94463C30.8643 7.3905 30.0765 6.91881 29.3077 6.41931C26.1122 4.27791 22.9099 2.14626 19.7178 -2.00272e-05H19.7056C16.3866 2.21504 13.0711 4.43546 9.75269 6.64955C9.10978 7.03832 8.4898 7.46465 7.87128 7.89146C8.19517 8.22706 8.52589 8.55535 8.86003 8.88021C10.1741 10.1885 11.4502 11.5372 12.8365 12.7694Z" fill="#af2323"/>
<path d="M25.5341 35.4641C20.8406 37.803 16.2914 36.4031 15.6783 36.204C13.6295 35.5397 11.7555 34.3504 10.2765 32.7856C8.35262 30.7705 7.10729 28.1189 6.79559 25.3492C6.51609 22.9654 6.90632 20.505 7.92971 18.3319C8.56676 16.967 9.44723 15.7183 10.5106 14.652C9.23699 13.3471 7.93215 12.0706 6.6473 10.7755C6.35219 10.4843 6.06196 10.1892 5.76782 9.89796C3.81129 11.8721 2.25377 14.2466 1.27526 16.8504C-0.288107 20.9479 -0.415909 25.5717 0.902102 29.7535C2.08939 33.5607 4.47712 36.9782 7.62972 39.4171C10.0462 41.2995 12.9091 42.6034 15.9153 43.1868C17.6407 43.5224 21.5757 44.0575 26.1492 42.4736C29.9408 41.1605 32.4314 38.9947 33.689 37.7303L28.6759 33.25C28.6759 33.25 26.9872 34.7402 25.5341 35.4641Z" fill="#af2323"/>
<path d="M18.1267 27.6794C18.1384 29.7706 18.1267 31.8612 18.132 33.9519L18.1564 34.0056C20.3886 34.3553 22.7329 33.9436 24.7026 32.8344C26.1972 32.0017 27.4742 30.7832 28.382 29.3335C29.3859 27.735 29.9327 25.8512 29.9273 23.9624C29.9439 22.0849 29.4171 20.2084 28.4332 18.6099C27.3089 16.7685 25.5855 15.2983 23.5851 14.4871C21.808 13.7535 19.8227 13.5671 17.9325 13.8949C15.6516 14.2959 13.5288 15.5129 12.0215 17.2695C10.6342 18.8689 9.76447 20.9123 9.58643 23.0234C9.41424 24.9044 9.77959 26.8331 10.6347 28.5179C11.6781 30.5974 13.4585 32.3027 15.5892 33.2412C15.5902 28.1862 15.5892 23.1312 15.5902 18.0758C18.4057 18.067 21.2227 18.0636 24.0387 18.0758C23.6055 18.9109 23.2168 19.7694 22.7768 20.6001C21.2295 20.5928 19.6818 20.5806 18.1355 20.5884C18.1296 22.1308 18.1267 23.6717 18.1369 25.2131C19.6881 25.2219 21.2407 25.2117 22.7919 25.218C22.37 26.0302 21.9475 26.8428 21.5202 27.6531C20.391 27.6828 19.251 27.6218 18.1267 27.6794Z" fill="#af2323"/>
</svg>
